<svg width="1001" height="1001" xmlns="http://www.w3.org/2000/svg" style="fill-rule:evenodd;clip-rule:evenodd;stroke-linecap:round;stroke-linejoin:round;stroke-miterlimit:1.5"><g transform="matrix(1,0,0,1,-396.551483,-644.723881)"><g transform="matrix(1,0,0,1,-5.025253,-0)"><circle cx="901.785" cy="1144.932" r="500" style="fill:#fff"/></g><g transform="matrix(0.9,0,0,0.9,85.153254,114.493221)"><circle cx="901.785" cy="1144.932" r="500"/></g><g transform="matrix(1.174301,0,0,0.868144,-1492.338585,-616.356501)"><rect x="2038.765" y="2e3" width="383.207" height="57.594" style="fill:red"/></g><g transform="matrix(1.23954,-1.23954,0.613871,0.613871,-2899.34961,2894.826763)"><rect x="2038.765" y="2e3" width="383.207" height="57.594" style="fill:red"/></g><g transform="matrix(0.375942,0.375942,-0.779108,0.779108,1413.286524,-1069.021784)"><rect x="1404.574" y="1726.397" width="860.779" height="45.379" style="fill:#fff"/></g><g transform="matrix(0.739755,-0.739755,0.779108,0.779108,-1821.040593,1142.302424)"><rect x="1404.574" y="1726.397" width="860.779" height="45.379" style="fill:#fff"/></g><g transform="matrix(0.95,0,0,0.95,40.064,57.246611)"><circle cx="901.785" cy="1144.932" r="500" style="fill:none;stroke:#fff;stroke-width:53.07px"/><circle cx="901.785" cy="1144.932" r="500" style="fill:#fff;fill-opacity:0"/></g></g></svg>